# xmcd CD database file
#
# Track frame offsets:
#	150
#	23346
#	38775
#	52665
#	69225
#	83803
#	96506
#	106659
#	115407
#	131901
#	142813
#
# Disc length: 2065 seconds
#
# Revision: 1
# Processed by: cddbd v1.5.2PL0 Copyright (c) Steve Scherf et al.
# Submitted via: jetAudio 7
#
DISCID=83080f0b
DTITLE=Entre o Banjo and a Viola Caipira - Entre o Banjo and a Viola Caipir
DTITLE=a
DYEAR=1900
DGENRE=Country
TTITLE0=Pouporri Various
TTITLE1=A Dueling Banjos
TTITLE2=Comitiva Esperança
TTITLE3=Chalana
TTITLE4=Cuitelinho
TTITLE5=Dr Jeckle And Hyde Park
TTITLE6=Tema da Montanha
TTITLE7=Eight More Miles to Louisville
TTITLE8=Tocando em Frente
TTITLE9=Hino Nacional Brasileiro
TTITLE10=Ave Maria
EXTD=
EXTT0=
EXTT1=
EXTT2=
EXTT3=
EXTT4=
EXTT5=
EXTT6=
EXTT7=
EXTT8=
EXTT9=
EXTT10=
PLAYORDER=
